<?xml version="1.0" encoding="UTF-8"?>
<svg xmlns="http://www.w3.org/2000/svg" xmlns:xlink="http://www.w3.org/1999/xlink" width="144px" height="144px" viewBox="0 0 144 144" version="1.1">
<g id="surface96128">
<path style=" stroke:none;fill-rule:nonzero;fill:rgb(29.803922%,68.627451%,31.372549%);fill-opacity:1;" d="M 123 30 L 75 30 L 75 114 L 123 114 C 124.660156 114 126 112.660156 126 111 L 126 33 C 126 31.339844 124.660156 30 123 30 Z M 123 30 "/>
<path style=" stroke:none;fill-rule:nonzero;fill:rgb(100%,100%,100%);fill-opacity:1;" d="M 96 45 L 117 45 L 117 54 L 96 54 Z M 96 75 L 117 75 L 117 84 L 96 84 Z M 96 90 L 117 90 L 117 99 L 96 99 Z M 96 60 L 117 60 L 117 69 L 96 69 Z M 75 45 L 90 45 L 90 54 L 75 54 Z M 75 75 L 90 75 L 90 84 L 75 84 Z M 75 90 L 90 90 L 90 99 L 75 99 Z M 75 60 L 90 60 L 90 69 L 75 69 Z M 75 60 "/>
<path style=" stroke:none;fill-rule:nonzero;fill:rgb(18.039216%,49.019608%,19.607843%);fill-opacity:1;" d="M 81 126 L 18 114 L 18 30 L 81 18 Z M 81 126 "/>
<path style=" stroke:none;fill-rule:nonzero;fill:rgb(100%,100%,100%);fill-opacity:1;" d="M 57.386719 93 L 50.152344 79.316406 C 49.878906 78.804688 49.597656 77.867188 49.300781 76.503906 L 49.191406 76.503906 C 49.054688 77.148438 48.730469 78.125 48.21875 79.441406 L 40.957031 93 L 29.683594 93 L 43.070312 71.996094 L 30.820312 51 L 42.332031 51 L 48.335938 63.589844 C 48.804688 64.582031 49.222656 65.761719 49.597656 67.125 L 49.714844 67.125 C 49.949219 66.3125 50.386719 65.085938 51.03125 63.464844 L 57.710938 51 L 68.257812 51 L 55.660156 71.816406 L 68.605469 92.992188 L 57.386719 92.992188 Z M 57.386719 93 "/>
</g>
</svg>
