<?xml version="1.0" encoding="UTF-8"?>
<svg xmlns="http://www.w3.org/2000/svg" xmlns:xlink="http://www.w3.org/1999/xlink" width="144px" height="144px" viewBox="0 0 144 144" version="1.1">
<g id="surface138004">
<path style=" stroke:none;fill-rule:nonzero;fill:rgb(1.176471%,66.27451%,95.686275%);fill-opacity:1;" d="M 63 93 C 63 96.3125 65.6875 99 69 99 L 120 99 C 123.3125 99 126 96.3125 126 93 L 126 48 C 126 44.6875 123.3125 42 120 42 L 69 42 C 65.6875 42 63 44.6875 63 48 Z M 63 93 "/>
<path style=" stroke:none;fill-rule:nonzero;fill:rgb(70.196078%,89.803922%,98.823529%);fill-opacity:1;" d="M 126 50.925781 L 126 48 C 126 46.714844 125.589844 45.53125 124.898438 44.554688 L 91.105469 65.351562 L 68.480469 51.382812 L 66.375 57 L 91.753906 72 Z M 126 50.925781 "/>
<path style=" stroke:none;fill-rule:nonzero;fill:rgb(0.784314%,46.666667%,74.117647%);fill-opacity:1;" d="M 81 124.378906 L 18 112.378906 L 18 28.378906 L 81 16.378906 Z M 81 124.378906 "/>
<path style=" stroke:none;fill-rule:nonzero;fill:rgb(100%,100%,100%);fill-opacity:1;" d="M 63.648438 54.933594 C 60.355469 51.109375 56.011719 49.195312 50.664062 49.195312 C 44.988281 49.195312 40.441406 51.199219 37.003906 55.203125 C 33.570312 59.214844 31.84375 64.46875 31.84375 70.941406 C 31.84375 77.074219 33.535156 82.082031 36.914062 85.898438 C 40.292969 89.71875 44.691406 91.628906 50.050781 91.628906 C 55.570312 91.628906 60.042969 89.671875 63.472656 85.703125 C 66.898438 81.765625 68.605469 76.574219 68.605469 70.105469 C 68.605469 63.84375 66.953125 58.785156 63.648438 54.933594 Z M 57.148438 80.203125 C 55.441406 82.511719 53.128906 83.660156 50.207031 83.660156 C 47.390625 83.660156 45.109375 82.480469 43.351562 80.101562 C 41.609375 77.746094 40.742188 74.515625 40.742188 70.46875 C 40.742188 66.460938 41.609375 63.226562 43.351562 60.792969 C 45.109375 58.363281 47.457031 57.160156 50.417969 57.160156 C 53.304688 57.160156 55.570312 58.339844 57.21875 60.691406 C 58.882812 63.078125 59.71875 66.378906 59.71875 70.621094 C 59.722656 74.71875 58.855469 77.902344 57.148438 80.203125 Z M 57.148438 80.203125 "/>
</g>
</svg>
