<?xml version="1.0" encoding="UTF-8"?>
<svg xmlns="http://www.w3.org/2000/svg" xmlns:xlink="http://www.w3.org/1999/xlink" width="144px" height="144px" viewBox="0 0 144 144" version="1.1">
<g id="surface11476">
<path style=" stroke:none;fill-rule:nonzero;fill:rgb(12.941176%,58.823529%,95.294118%);fill-opacity:1;" d="M 123 30 L 75 30 L 75 114 L 123 114 C 124.660156 114 126 112.660156 126 111 L 126 33 C 126 31.339844 124.660156 30 123 30 Z M 123 30 "/>
<path style=" stroke:none;fill-rule:nonzero;fill:rgb(100%,100%,100%);fill-opacity:1;" d="M 75 45.003906 L 117 45.003906 L 117 51 L 75 51 Z M 75 57 L 117 57 L 117 63 L 75 63 Z M 75 69.003906 L 117 69.003906 L 117 75.003906 L 75 75.003906 Z M 75 81.003906 L 117 81.003906 L 117 87 L 75 87 Z M 75 93 L 117 93 L 117 99.003906 L 75 99.003906 Z M 75 93 "/>
<path style=" stroke:none;fill-rule:nonzero;fill:rgb(5.098039%,27.843137%,63.137255%);fill-opacity:1;" d="M 81 126 L 18 114 L 18 30 L 81 18 Z M 81 126 "/>
<path style=" stroke:none;fill-rule:nonzero;fill:rgb(100%,100%,100%);fill-opacity:1;" d="M 63.5 93.035156 L 55.351562 93.035156 L 49.945312 66.070312 C 49.648438 64.640625 49.480469 63.085938 49.421875 61.34375 L 49.324219 61.34375 C 49.195312 63.253906 48.996094 64.828125 48.734375 66.070312 L 43.183594 93.035156 L 34.703125 93.035156 L 26.125 50.992188 L 34.148438 50.992188 L 38.757812 78.976562 C 38.941406 80.191406 39.089844 81.792969 39.1875 83.800781 L 39.3125 83.800781 C 39.367188 82.304688 39.605469 80.644531 39.980469 78.863281 L 45.890625 50.992188 L 53.757812 50.992188 L 59.113281 79.203125 C 59.296875 80.246094 59.46875 81.742188 59.621094 83.734375 L 59.714844 83.734375 C 59.773438 82.191406 59.933594 80.632812 60.195312 79.046875 L 64.703125 50.992188 L 72.109375 50.992188 Z M 63.5 93.035156 "/>
</g>
</svg>
